<svg width="25" height="24" viewBox="0 0 25 24" fill="none" xmlns="http://www.w3.org/2000/svg">
<path d="M24.0129 7.26383C23.9422 7.20941 23.8576 7.17443 23.7681 7.16258C23.6786 7.15074 23.5875 7.16245 23.5043 7.1965L15.4103 10.5896C15.0584 10.7381 14.6177 10.8086 14.1652 10.8086C13.5343 10.8111 12.8816 10.6691 12.4266 10.4761C12.2879 10.4197 12.1558 10.349 12.0328 10.2652C12.0668 10.2489 12.1073 10.2316 12.1543 10.2132L19.5159 7.12755L20.6136 7.58181V6.25392C20.6149 6.15927 20.5943 6.06553 20.5533 5.97962C20.5122 5.8937 20.4518 5.81779 20.3764 5.75748C20.3063 5.70256 20.222 5.66726 20.1327 5.65539C20.0433 5.64352 19.9523 5.65555 19.8695 5.69016L11.7755 9.08329C11.5259 9.18063 11.3114 9.30068 11.1304 9.47508C10.921 9.6754 10.802 9.94776 10.7994 10.2327C10.7994 10.2408 10.8019 10.2546 10.8019 10.2546V22.2032L10.8002 22.2194L10.8028 22.2275V22.2405H10.8044C10.8212 22.6582 11.039 22.9243 11.2468 23.1125C11.9004 23.6706 12.998 23.9829 14.166 23.9991C14.719 23.9991 15.2804 23.918 15.7999 23.7022L23.8964 20.3083C24.1101 20.219 24.25 19.9976 24.25 19.7469V7.76027C24.2513 7.66562 24.2307 7.57188 24.1897 7.48596C24.1487 7.40004 24.0882 7.32413 24.0129 7.26383ZM18.8791 4.99255C18.8649 4.81409 18.7886 4.64375 18.6529 4.54154C18.5822 4.48712 18.4977 4.45214 18.4082 4.4403C18.3187 4.42845 18.2275 4.44016 18.1443 4.47421L10.0503 7.86572C9.69842 8.01335 9.25686 8.08473 8.80524 8.08473C8.17431 8.08636 7.5216 7.9444 7.06663 7.75053C6.92799 7.69464 6.79596 7.62448 6.67282 7.54125C6.70689 7.52503 6.74739 7.50772 6.79431 7.48933L14.1568 4.40364L15.2544 4.8579V3.53163C15.2557 3.43692 15.235 3.34314 15.1938 3.25722C15.1526 3.1713 15.092 3.09542 15.0165 3.0352C14.9459 2.98092 14.8615 2.94603 14.7721 2.93419C14.6828 2.92234 14.5918 2.93398 14.5087 2.96787L6.41475 6.36181C6.16506 6.45915 5.9514 6.57839 5.76958 6.7536C5.56054 6.95405 5.44187 7.2264 5.43945 7.51124C5.43945 7.52097 5.44197 7.53395 5.44197 7.53395V19.5206H5.44364C5.4604 19.9384 5.67825 20.2044 5.88605 20.3926C6.5396 20.9507 7.63723 21.2622 8.80608 21.2784C9.12349 21.2764 9.43988 21.2433 9.75037 21.1795V10.2538C9.74199 9.68599 9.9766 9.14088 10.3888 8.74827C10.6748 8.4805 11.014 8.27185 11.3859 8.13503L18.8791 4.99255Z" fill="#60381D"/>
<path d="M13.6897 2.06286C13.6754 1.88441 13.5992 1.71406 13.4635 1.61185C13.3927 1.55743 13.3082 1.52246 13.2187 1.51061C13.1292 1.49876 13.0381 1.51048 12.9549 1.54453L4.86088 4.93603C4.50897 5.08366 4.06741 5.15505 3.61579 5.15505C2.98486 5.15667 2.33214 5.01471 1.87717 4.82084C1.73853 4.76495 1.60651 4.69479 1.48337 4.61156C1.51744 4.59534 1.55794 4.57803 1.60486 4.55965L8.96736 1.47395L10.065 1.92821V0.601945C10.0662 0.50723 10.0455 0.413452 10.0043 0.32753C9.96313 0.241608 9.90255 0.165734 9.82703 0.105508C9.75641 0.0512344 9.67201 0.0163473 9.58268 0.00450198C9.49334 -0.00734331 9.40236 0.00428933 9.31927 0.0381809L1.2253 3.43212C0.975609 3.52946 0.761948 3.6487 0.580127 3.82392C0.371089 4.02437 0.252417 4.29672 0.25 4.58155C0.25 4.59128 0.252513 4.60426 0.252513 4.60426V16.5909H0.25419C0.270947 17.0087 0.488797 17.2747 0.696593 17.4629C1.35014 18.021 2.44777 18.3325 3.61662 18.3487C3.93404 18.3468 4.25042 18.3136 4.56092 18.2498V7.32412C4.55254 6.7563 4.78715 6.21119 5.19939 5.81858C5.48534 5.55081 5.82458 5.34216 6.19647 5.20534L13.6897 2.06286Z" fill="#60381D"/>
</svg>
