<svg width="21" height="24" viewBox="0 0 21 24" fill="none" xmlns="http://www.w3.org/2000/svg">
<path d="M20.7283 4.93699C20.6531 4.87499 20.5632 4.83516 20.4681 4.82166C20.3729 4.80817 20.276 4.82151 20.1875 4.8603L11.5818 8.72538C11.2076 8.89447 10.739 8.97486 10.2579 8.97486C9.58712 8.97763 8.89314 8.81593 8.4094 8.59602C8.26192 8.53177 8.12154 8.45123 7.99069 8.35578C8.02692 8.3373 8.06998 8.31759 8.11987 8.29665L15.947 4.78176L17.114 5.29919V3.78661C17.1155 3.67879 17.0936 3.57202 17.0499 3.47415C17.0063 3.37628 16.9421 3.28982 16.8619 3.22112C16.7874 3.15856 16.6978 3.11834 16.6028 3.10483C16.5078 3.09131 16.411 3.105 16.323 3.14443L7.7172 7.00952C7.45172 7.1204 7.22366 7.25715 7.03123 7.45581C6.80865 7.68399 6.68214 7.99424 6.67934 8.31882C6.67934 8.32806 6.68201 8.34377 6.68201 8.34377V21.9543L6.68023 21.9727L6.6829 21.982V21.9968H6.68468C6.7025 22.4726 6.93412 22.7757 7.15506 22.9901C7.84993 23.6258 9.01697 23.9815 10.2588 24C10.8468 24 11.4437 23.9076 11.996 23.6618L20.6045 19.7958C20.8316 19.6942 20.9804 19.4419 20.9804 19.1564V5.50247C20.9818 5.39466 20.9599 5.28788 20.9163 5.19002C20.8727 5.09215 20.8084 5.00568 20.7283 4.93699ZM15.27 2.34979C15.2548 2.14651 15.1737 1.95247 15.0294 1.83605C14.9542 1.77406 14.8643 1.73422 14.7692 1.72072C14.674 1.70723 14.5771 1.72057 14.4887 1.75936L5.8829 5.62259C5.50874 5.79076 5.03925 5.87207 4.55908 5.87207C3.88825 5.87392 3.19427 5.71222 2.71053 5.49139C2.56313 5.42772 2.42275 5.3478 2.29182 5.25299C2.32805 5.23451 2.37111 5.2148 2.421 5.19386L10.249 1.67897L11.4161 2.19641V0.68567C11.4174 0.577781 11.3954 0.47096 11.3516 0.373086C11.3078 0.275213 11.2434 0.188787 11.1631 0.120183C11.088 0.0583607 10.9982 0.018621 10.9033 0.00512817C10.8083 -0.00836471 10.7115 0.00488594 10.6232 0.0434916L2.01744 3.9095C1.75196 4.02038 1.52479 4.15621 1.33147 4.35579C1.10921 4.58412 0.983039 4.89436 0.980469 5.21881C0.980469 5.22989 0.983141 5.24468 0.983141 5.24468V18.8986H0.984923C1.00274 19.3745 1.23437 19.6775 1.4553 19.8919C2.15018 20.5276 3.31721 20.8824 4.55997 20.9009C4.89745 20.8987 5.23384 20.8609 5.56397 20.7882V8.34284C5.55506 7.69605 5.80451 7.07512 6.24281 6.6279C6.54685 6.32288 6.90754 6.08522 7.30294 5.92936L15.27 2.34979Z" fill="#60381D"/>
</svg>
