<svg width="23" height="22" viewBox="0 0 23 22" fill="none" xmlns="http://www.w3.org/2000/svg">
<path fill-rule="evenodd" clip-rule="evenodd" d="M3.59409 0.943362C4.967 -0.49553 7.22773 -0.239859 8.37727 1.37979L9.80094 3.38234C10.7373 4.69994 10.6538 6.54077 9.5426 7.70497L9.27411 7.98799C9.24367 8.1068 9.24057 8.23155 9.26509 8.35187C9.33616 8.83705 9.72084 9.86449 11.3318 11.5531C12.9427 13.2417 13.9242 13.646 14.3912 13.7222C14.5089 13.7471 14.6304 13.7434 14.7466 13.7114L15.2068 13.2286C16.1951 12.1941 17.7112 12.0002 18.9341 12.7007L21.0888 13.9374C22.9355 14.9934 23.4014 17.6381 21.8897 19.2232L20.2867 20.9023C19.7813 21.4315 19.1022 21.8727 18.2742 21.9548C16.2323 22.1557 11.4751 21.8989 6.47415 16.6582C1.80717 11.766 0.911451 7.49924 0.797512 5.39679C0.741106 4.33368 1.21717 3.43467 1.82409 2.79965L3.59409 0.943362ZM7.02354 2.44885C6.45159 1.64378 5.38665 1.57957 4.7865 2.20864L3.01537 4.06374C2.6431 4.45378 2.46485 4.88426 2.48742 5.29571C2.57767 6.96649 3.29965 10.8158 7.66769 15.3941C12.2501 20.196 16.4816 20.3399 18.1173 20.1781C18.4513 20.146 18.7829 19.9629 19.0932 19.6383L20.6951 17.958C21.3471 17.2754 21.2038 16.0315 20.2811 15.5035L18.1264 14.268C17.5307 13.9279 16.8336 14.0397 16.4004 14.4939L15.8871 15.0326L15.2892 14.4C15.8871 15.0326 15.886 15.0338 15.8848 15.0338L15.8837 15.0362L15.8803 15.0398L15.8724 15.0469L15.8555 15.0635C15.8079 15.1101 15.7566 15.1523 15.7021 15.1896C15.6118 15.2526 15.4922 15.3228 15.3422 15.381C15.0376 15.5011 14.6338 15.5654 14.1351 15.4845C13.1571 15.3263 11.8609 14.6235 10.1382 12.8184C8.41675 11.0132 7.7444 9.6552 7.59323 8.62538C7.51539 8.09977 7.57744 7.67405 7.69251 7.35297C7.75583 7.1723 7.84651 7.00363 7.961 6.85352L7.99709 6.8119L8.01289 6.79406L8.01966 6.78693L8.02304 6.78336L8.0253 6.78098L8.35019 6.44088C8.83302 5.93311 8.90071 5.09237 8.44608 4.45141L7.02354 2.44885Z" fill="#040404"/>
</svg>
