<svg width="23" height="22" viewBox="0 0 23 22" fill="none" xmlns="http://www.w3.org/2000/svg">
<path d="M10.5528 5V6.989C10.5528 8.387 10.5528 9.086 10.7398 9.758C10.9268 10.428 11.2938 11.045 12.0278 12.278L13.0228 13.948C14.8928 17.089 15.8278 18.66 15.0608 19.824L15.0488 19.842C14.2708 21 12.2908 21 8.32983 21C4.36983 21 2.38983 21 1.60983 19.842L1.59883 19.824C0.831832 18.66 1.76683 17.089 3.63683 13.948L4.63183 12.278C5.36583 11.045 5.73183 10.428 5.91983 9.758C6.10683 9.087 6.10683 8.388 6.10683 6.989V5M5.32983 5H11.3298" stroke="#AC6420" stroke-width="1.5" stroke-linecap="round" stroke-linejoin="round"/>
<path d="M4.83008 12.28C5.49708 11.699 7.06408 12.118 8.33208 12.664C9.99808 13.383 11.4971 12.802 11.8301 12.28M10.8301 6C10.8301 8 13.1921 10.212 14.8031 10C14.8031 11.657 16.2641 13 18.0661 13C19.8701 13 21.3301 11.657 21.3301 10C21.3301 8.343 20.3301 7 18.3301 7C18.3301 5 16.8301 3 14.7101 3C14.7101 1.457 13.8301 1 12.8301 1C11.8301 1 11.3301 2 11.3301 2C11.3301 2 8.33008 2 8.33008 5" stroke="#AC6420" stroke-width="1.5" stroke-linecap="round" stroke-linejoin="round"/>
</svg>
