<svg width="17" height="22" viewBox="0 0 17 22" fill="none" xmlns="http://www.w3.org/2000/svg">
<path d="M16.6378 1.93389C16.5537 1.86864 16.4531 1.82671 16.3466 1.8125C16.2402 1.79829 16.1318 1.81234 16.0328 1.85317L6.40473 5.92163C5.98612 6.09962 5.46186 6.18424 4.92364 6.18424C4.17313 6.18716 3.39671 6.01695 2.8555 5.78547C2.6905 5.71783 2.53344 5.63305 2.38706 5.53259C2.42759 5.51313 2.47576 5.49238 2.53158 5.47034L11.2885 1.77049L12.5942 2.31516V0.722984C12.5958 0.609496 12.5713 0.497102 12.5225 0.394084C12.4737 0.291066 12.4018 0.200049 12.3121 0.127741C12.2287 0.0618879 12.1285 0.0195549 12.0222 0.00532539C11.9159 -0.00890411 11.8076 0.00551242 11.7091 0.0470137L2.08107 4.11548C1.78406 4.23219 1.5289 4.37614 1.31362 4.58525C1.06459 4.82544 0.923061 5.15202 0.919922 5.49368C0.919922 5.50341 0.922913 5.51994 0.922913 5.51994V19.8466L0.920919 19.8661L0.923908 19.8758V19.8914H0.925903C0.945837 20.3923 1.20498 20.7113 1.45216 20.9369C2.22958 21.6061 3.53525 21.9805 4.92464 22C5.58246 22 6.25024 21.9027 6.86819 21.644L16.4992 17.5746C16.7534 17.4676 16.9198 17.2021 16.9198 16.9015V2.52914C16.9215 2.41565 16.8969 2.30325 16.8481 2.20024C16.7993 2.09722 16.7274 2.0062 16.6378 1.93389Z" fill="#60381D"/>
</svg>
