<svg width="24" height="24" viewBox="0 0 24 24" fill="none" xmlns="http://www.w3.org/2000/svg">
<path d="M10.8857 0.857422H21.6892C22.4932 0.857422 23.1446 1.50885 23.1446 2.31285V13.9323C23.1446 14.738 22.4932 15.3894 21.6892 15.3894H12.8572M5.39832 6.85914C6.19419 6.85914 6.95747 6.54298 7.52024 5.98021C8.08301 5.41744 8.39918 4.65416 8.39918 3.85828C8.39918 3.0624 8.08301 2.29912 7.52024 1.73635C6.95747 1.17358 6.19419 0.857422 5.39832 0.857422C4.60244 0.857422 3.83916 1.17358 3.27639 1.73635C2.71362 2.29912 2.39746 3.0624 2.39746 3.85828C2.39746 4.65416 2.71362 5.41744 3.27639 5.98021C3.83916 6.54298 4.60244 6.85914 5.39832 6.85914Z" stroke="#AC6420" stroke-width="2" stroke-linecap="round" stroke-linejoin="round"/>
<path d="M15.4289 9.47541C15.4289 8.50342 14.6403 7.71484 13.6683 7.71484H5.39856C4.19432 7.7153 3.03952 8.19388 2.18799 9.04542C1.33646 9.89695 0.857876 11.0517 0.857422 12.256V16.2863H2.80314L3.45285 23.1434H7.34428L8.83914 11.2377H13.6683C14.6403 11.2377 15.4289 10.4491 15.4289 9.47541Z" stroke="#AC6420" stroke-width="2" stroke-linecap="round" stroke-linejoin="round"/>
</svg>
